<?xml version="1.0" standalone="no"?>
<!DOCTYPE svg PUBLIC "-//W3C//DTD SVG 20010904//EN"
 "http://www.w3.org/TR/2001/REC-SVG-20010904/DTD/svg10.dtd">
<svg version="1.0" xmlns="http://www.w3.org/2000/svg"
 width="198.000000pt" height="198.000000pt" viewBox="0 0 198.000000 198.000000"
 preserveAspectRatio="xMidYMid meet">

<g transform="translate(0.000000,198.000000) scale(0.100000,-0.100000)"
fill="#000000" stroke="none">
<path d="M680 1260 c0 -284 3 -417 11 -434 18 -39 66 -56 158 -56 l81 0 0 60
0 60 -65 0 -65 0 0 275 0 275 65 0 65 0 0 60 0 60 -65 0 -65 0 0 55 0 55 -60
0 -60 0 0 -410z"/>
<path d="M1050 1500 l0 -59 65 -3 66 -3 0 -270 0 -270 -66 -3 -66 -3 3 -117 3
-117 55 0 55 0 3 56 3 57 40 6 c23 4 51 17 65 31 l24 24 0 331 c0 218 -4 338
-11 352 -17 32 -71 48 -159 48 l-80 0 0 -60z"/>
<path d="M963 844 c-3 -8 2 -23 11 -32 15 -15 17 -15 32 0 21 21 11 48 -16 48
-11 0 -23 -7 -27 -16z"/>
<path d="M37 473 c-19 -19 -5 -33 33 -33 l40 0 0 -65 c0 -63 1 -65 25 -65 24
0 25 2 25 65 l0 65 35 0 c28 0 35 4 35 20 0 19 -7 20 -93 20 -52 0 -97 -3
-100 -7z"/>
<path d="M260 395 c0 -84 0 -85 25 -85 18 0 25 5 25 20 0 17 7 20 50 20 43 0
50 -3 50 -20 0 -16 7 -20 31 -20 29 0 31 2 24 27 -3 15 -12 31 -18 35 -9 6 -9
8 0 8 21 0 27 48 9 75 -16 24 -22 25 -106 25 l-90 0 0 -85z m157 29 c8 -22
-14 -34 -64 -34 -39 0 -43 2 -43 25 0 23 3 25 50 25 37 0 52 -4 57 -16z"/>
<path d="M500 411 c0 -93 9 -101 109 -101 46 0 82 5 89 12 7 7 12 42 12 85 0
71 -1 73 -25 73 -23 0 -24 -4 -27 -62 l-3 -63 -50 0 -50 0 -3 63 c-3 58 -4 62
-27 62 -24 0 -25 -2 -25 -69z"/>
<path d="M766 464 c-19 -19 -22 -124 -4 -142 16 -16 180 -16 196 0 21 21 14
48 -11 48 -13 0 -28 -5 -34 -11 -5 -5 -32 -9 -59 -7 -48 3 -49 4 -52 37 -2 20
2 37 10 42 18 12 98 11 98 -1 0 -5 14 -10 30 -10 35 0 38 12 10 40 -16 16 -33
20 -94 20 -54 0 -79 -4 -90 -16z"/>
<path d="M1000 395 c0 -84 0 -85 25 -85 21 0 25 5 25 30 0 21 5 30 16 30 9 0
32 -13 51 -30 24 -22 44 -30 70 -30 l36 0 -39 35 c-21 19 -42 34 -46 35 -18 1
-5 22 35 59 l42 40 -35 1 c-26 0 -43 -9 -71 -36 -41 -40 -59 -38 -59 7 0 24
-4 29 -25 29 -25 0 -25 -1 -25 -85z"/>
<path d="M1250 395 c0 -84 0 -85 25 -85 18 0 25 5 25 20 0 18 7 20 56 20 76 0
94 11 94 60 0 60 -17 70 -116 70 l-84 0 0 -85z m145 20 c0 -17 -8 -20 -47 -23
-46 -3 -48 -2 -48 23 0 25 2 26 48 23 39 -3 47 -6 47 -23z"/>
<path d="M1488 395 l-46 -85 29 0 c17 0 32 6 35 15 9 22 110 21 122 -1 5 -10
19 -14 35 -12 l26 3 -45 83 c-42 77 -47 82 -78 82 -31 0 -36 -5 -78 -85z m112
-17 c0 -5 -13 -8 -30 -8 -32 0 -36 9 -19 42 l11 21 19 -24 c10 -13 19 -27 19
-31z"/>
<path d="M1720 395 l0 -85 98 0 c118 0 132 9 132 83 0 75 -19 87 -135 87 l-95
0 0 -85z m168 33 c7 -7 12 -21 12 -33 0 -33 -20 -45 -77 -45 l-53 0 0 45 0 45
53 0 c29 0 58 -5 65 -12z"/>
</g>
</svg>
